Coordinates
version=1
nRows=8
nColumns=42
inDegrees=yes

Units are S.I. units (second, meters, Newtons, ...)
If the header above contains a line with 'inDegrees', this indicates whether rotational values are in degrees (yes) or radians (no).

endheader
time	pelvis_tilt	pelvis_list	pelvis_rotation	pelvis_tx	pelvis_ty	pelvis_tz	hip_flexion_r	hip_adduction_r	hip_rotation_r	knee_angle_r	knee_adduction_r	knee_angle_r_beta	ankle_angle_r	subtalar_angle_r	mtp_angle_r	hip_flexion_l	hip_adduction_l	hip_rotation_l	knee_angle_l	knee_adduction_l	knee_angle_l_beta	ankle_angle_l	subtalar_angle_l	mtp_angle_l	lumbar_extension	lumbar_bending	lumbar_rotation	arm_flex_r	arm_add_r	arm_rot_r	elbow_flex_r	pro_sup_r	wrist_flex_r	wrist_dev_r	arm_flex_l	arm_add_l	arm_rot_l	elbow_flex_l	pro_sup_l	wrist_flex_l	wrist_dev_l
      1.30000000	      9.93847698	      6.87611921	     18.68283509	      0.15735150	      0.90349044	      0.48044995	     -6.76924043	     -1.51433225	    -24.44664881	     23.16282776	      1.03820555	      0.40426761	     23.42776160	      3.75200514	     -8.03564791	     26.79054627	     -8.76196153	      2.97325379	     27.76077335	      7.20504980	      0.48451690	      6.43121436	      6.25347941	     -8.03564791	    -26.98945950	     -5.32998250	     -1.39360190	     -9.08399635	    -24.22656811	    -27.61728574	     66.31573891	     90.00000001	      0.00000000	      0.00000000	      0.18774965	    -20.40354124	     12.68652871	     87.76176515	     90.00000001	      0.00000000	      0.00000000
      1.31000000	     10.32905919	      6.81829824	     18.36441994	      0.15983220	      0.90307841	      0.48033602	     -7.27512537	     -1.32194341	    -24.08615687	     23.23755421	      1.07020565	      0.40557183	     23.73447026	      3.55412733	     -8.02371488	     27.23136861	     -8.67395635	      2.41389590	     28.18006479	      7.11838076	      0.49183491	      6.39998940	      6.50802785	     -8.02371488	    -27.16139478	     -5.20767188	     -1.04198846	     -9.19081383	    -24.39420482	    -27.06260503	     67.09395892	     90.00000001	      0.00000000	      0.00000000	     -0.08938740	    -20.38064035	     12.24650404	     87.86747646	     90.00000001	      0.00000000	      0.00000000
      1.32000000	     10.50295428	      6.77352103	     18.16424076	      0.16217531	      0.90251602	      0.48007433	     -7.49471036	     -1.23996267	    -23.91196438	     23.46215012	      1.04987028	      0.40949177	     23.62217649	      3.61136066	     -8.01988453	     27.68535874	     -8.43400474	      2.34309934	     28.20233196	      7.21716351	      0.49222355	      6.37181275	      6.54850978	     -8.01988453	    -27.12466077	     -5.16374289	     -0.75061591	     -9.05235464	    -24.35699556	    -26.96037404	     67.17388735	     90.00000001	      0.00000000	      0.00000000	     -0.19177649	    -20.42783654	     12.19693966	     87.80396787	     90.00000001	      0.00000000	      0.00000000
      1.33000000	     11.00857522	      6.75335178	     17.81162291	      0.16492928	      0.90232255	      0.47989428	     -8.22458149	     -1.08747244	    -23.70531138	     23.43484134	      1.12387240	      0.40901514	     24.21039056	      3.39467827	     -8.01116006	     27.87598858	     -8.34841602	      1.81266489	     28.73227503	      7.16843467	      0.50147280	      6.29062474	      6.70159151	     -8.01116006	    -27.41650191	     -5.02527488	     -0.55907141	     -9.04690713	    -24.43089459	    -26.28877725	     68.31697644	     90.00000001	      0.00000000	      0.00000000	     -0.67099310	    -20.44964456	     11.68753891	     87.82048742	     90.00000001	      0.00000000	      0.00000000
      1.34000000	     11.19707876	      6.67511500	     17.49359908	      0.16757778	      0.90185721	      0.47963096	     -8.50454753	     -1.01551760	    -23.57024392	     23.58351998	      1.12675349	      0.41161007	     24.16415543	      3.42887493	     -8.00794145	     28.16243678	     -8.12159001	      1.80980989	     28.80688968	      7.20573105	      0.50277507	      6.25053254	      6.77245226	     -8.00794145	    -27.35358821	     -4.97396639	     -0.22454095	     -8.87346257	    -24.36438462	    -26.11483310	     68.52578144	     90.00000001	      0.00000000	      0.00000000	     -0.94062242	    -20.48314550	     11.63907325	     87.72704824	     90.00000001	      0.00000000	      0.00000000
      1.35000000	     11.67997722	      6.68932500	     17.19709322	      0.17030030	      0.90182060	      0.47917045	     -9.34812023	     -0.92091409	    -23.20774003	     23.34789081	      1.33065537	      0.40749757	     24.57931912	      3.41229279	     -7.99896740	     28.11567773	     -7.88880816	      1.41559943	     29.05084500	      7.10538373	      0.50703290	      6.16793661	      7.09875882	     -7.99896740	    -27.67408692	     -4.83933019	     -0.10616271	     -8.98894599	    -24.54649749	    -25.21399880	     69.71488684	     90.00000001	      0.00000000	      0.00000000	     -1.40445332	    -20.38012332	     11.03385844	     87.86511555	     90.00000001	      0.00000000	      0.00000000
      1.36000000	     11.82024089	      6.58758434	     16.87558969	      0.17307297	      0.90133773	      0.47887539	     -9.58800878	     -0.85155247	    -23.10921368	     23.48654199	      1.32216093	      0.40991749	     24.52736960	      3.44422901	     -7.99615397	     28.31204865	     -7.66033598	      1.46313548	     29.10650146	      7.14394641	      0.50800428	      6.12548852	      7.16061489	     -7.99615397	    -27.55860948	     -4.79007249	      0.21680217	     -8.80574853	    -24.41602051	    -25.05160755	     69.87892017	     90.00000001	      0.00000000	      0.00000000	     -1.68851416	    -20.37747744	     11.03214847	     87.76095853	     90.00000001	      0.00000000	      0.00000000
      1.37000000	     12.15879395	      6.62025937	     16.59696262	      0.17588959	      0.90126513	      0.47843864	    -10.25372718	     -0.79941282	    -22.92009985	     23.29232622	      1.35391654	      0.40652778	     24.87902874	      3.46514868	     -7.99143810	     28.13174798	     -7.32876213	      1.46674465	     29.04044108	      7.16505918	      0.50685131	      6.00608549	      7.32284858	     -7.99143810	    -27.73536929	     -4.73373269	      0.23528945	     -8.66767996	    -24.34259043	    -24.43439039	     70.84130173	     90.00000001	      0.00000000	      0.00000000	     -2.17773738	    -20.38399553	     10.70638201	     87.68588563	     90.00000001	      0.00000000	      0.00000000
